<?xml version='1.0' encoding='UTF-8'?>
<!DOCTYPE svg PUBLIC "-//W3C//DTD SVG 1.0//EN" "http://www.w3.org/TR/2001/REC-SVG-20010904/DTD/svg10.dtd">
<svg viewBox="0 0 512 360" xmlns="http://www.w3.org/2000/svg" xmlns:inkspace="http://www.inkscape.org/namespaces/inkscape" xmlns:xlink="http://www.w3.org/1999/xlink">
  <defs id="defs_block">
    <filter height="1.504" id="filter_blur" inkspace:collect="always" width="1.1575" x="-0.07875" y="-0.252">
      <feGaussianBlur id="feGaussianBlur3780" inkspace:collect="always" stdDeviation="4.2" />
    </filter>
  </defs>
  <title>blockdiag</title>
  <desc>packetdiag {
  0-15: ID;
  16: QR;
  17-20: Opcode;
  21: AA;
  22: TC;
  23: RD;
  24: RA;
  25-27: Z;
  28-31: RCODE;
  32-47: QDCOUNT;
  48-63: ANCOUNT;
  64-79: NSCOUNT;
  80-95: ARCOUNT;
}</desc>
  <path d="M 64 48 L 64 80" fill="none" stroke="rgb(0,0,0)" />
  <text fill="rgb(0,0,0)" font-family="sans-serif" font-size="11" font-style="normal" font-weight="normal" text-anchor="middle" textLength="7" x="64.5" y="42">0</text>
  <path d="M 88 64 L 88 80" fill="none" stroke="rgb(0,0,0)" />
  <path d="M 112 64 L 112 80" fill="none" stroke="rgb(0,0,0)" />
  <path d="M 136 64 L 136 80" fill="none" stroke="rgb(0,0,0)" />
  <path d="M 160 48 L 160 80" fill="none" stroke="rgb(0,0,0)" />
  <path d="M 184 64 L 184 80" fill="none" stroke="rgb(0,0,0)" />
  <path d="M 208 64 L 208 80" fill="none" stroke="rgb(0,0,0)" />
  <path d="M 232 64 L 232 80" fill="none" stroke="rgb(0,0,0)" />
  <path d="M 256 48 L 256 80" fill="none" stroke="rgb(0,0,0)" />
  <text fill="rgb(0,0,0)" font-family="sans-serif" font-size="11" font-style="normal" font-weight="normal" text-anchor="middle" textLength="7" x="256.5" y="42">8</text>
  <path d="M 280 64 L 280 80" fill="none" stroke="rgb(0,0,0)" />
  <path d="M 304 64 L 304 80" fill="none" stroke="rgb(0,0,0)" />
  <path d="M 328 64 L 328 80" fill="none" stroke="rgb(0,0,0)" />
  <path d="M 352 48 L 352 80" fill="none" stroke="rgb(0,0,0)" />
  <path d="M 376 64 L 376 80" fill="none" stroke="rgb(0,0,0)" />
  <path d="M 400 64 L 400 80" fill="none" stroke="rgb(0,0,0)" />
  <path d="M 424 64 L 424 80" fill="none" stroke="rgb(0,0,0)" />
  <path d="M 448 48 L 448 80" fill="none" stroke="rgb(0,0,0)" />
  <text fill="rgb(0,0,0)" font-family="sans-serif" font-size="11" font-style="normal" font-weight="normal" text-anchor="middle" textLength="14" x="448.0" y="42">16</text>
  <rect fill="rgb(255,255,255)" height="40" stroke="rgb(255,255,255)" width="384" x="64" y="80" />
  <path d="M 64 80 L 448 80" fill="none" stroke="rgb(0,0,0)" />
  <path d="M 448 80 L 448 120" fill="none" stroke="rgb(0,0,0)" />
  <path d="M 448 120 L 64 120" fill="none" stroke="rgb(0,0,0)" />
  <path d="M 64 120 L 64 80" fill="none" stroke="rgb(0,0,0)" />
  <text fill="rgb(0,0,0)" font-family="sans-serif" font-size="11" font-style="normal" font-weight="normal" text-anchor="middle" textLength="13" x="256.5" y="106">ID</text>
  <rect fill="rgb(255,255,255)" height="40" stroke="rgb(255,255,255)" width="24" x="64" y="120" />
  <path d="M 64 120 L 88 120" fill="none" stroke="rgb(0,0,0)" />
  <path d="M 88 120 L 88 160" fill="none" stroke="rgb(0,0,0)" />
  <path d="M 88 160 L 64 160" fill="none" stroke="rgb(0,0,0)" />
  <path d="M 64 160 L 64 120" fill="none" stroke="rgb(0,0,0)" />
  <text fill="rgb(0,0,0)" font-family="sans-serif" font-size="11" font-style="normal" font-weight="normal" text-anchor="middle" textLength="18" x="76.0" y="147">QR</text>
  <rect fill="rgb(255,255,255)" height="40" stroke="rgb(255,255,255)" width="96" x="88" y="120" />
  <path d="M 88 120 L 184 120" fill="none" stroke="rgb(0,0,0)" />
  <path d="M 184 120 L 184 160" fill="none" stroke="rgb(0,0,0)" />
  <path d="M 184 160 L 88 160" fill="none" stroke="rgb(0,0,0)" />
  <path d="M 88 160 L 88 120" fill="none" stroke="rgb(0,0,0)" />
  <text fill="rgb(0,0,0)" font-family="sans-serif" font-size="11" font-style="normal" font-weight="normal" text-anchor="middle" textLength="42" x="136.0" y="147">Opcode</text>
  <rect fill="rgb(255,255,255)" height="40" stroke="rgb(255,255,255)" width="24" x="184" y="120" />
  <path d="M 184 120 L 208 120" fill="none" stroke="rgb(0,0,0)" />
  <path d="M 208 120 L 208 160" fill="none" stroke="rgb(0,0,0)" />
  <path d="M 208 160 L 184 160" fill="none" stroke="rgb(0,0,0)" />
  <path d="M 184 160 L 184 120" fill="none" stroke="rgb(0,0,0)" />
  <text fill="rgb(0,0,0)" font-family="sans-serif" font-size="11" font-style="normal" font-weight="normal" text-anchor="middle" textLength="18" x="196.0" y="146">AA</text>
  <rect fill="rgb(255,255,255)" height="40" stroke="rgb(255,255,255)" width="24" x="208" y="120" />
  <path d="M 208 120 L 232 120" fill="none" stroke="rgb(0,0,0)" />
  <path d="M 232 120 L 232 160" fill="none" stroke="rgb(0,0,0)" />
  <path d="M 232 160 L 208 160" fill="none" stroke="rgb(0,0,0)" />
  <path d="M 208 160 L 208 120" fill="none" stroke="rgb(0,0,0)" />
  <text fill="rgb(0,0,0)" font-family="sans-serif" font-size="11" font-style="normal" font-weight="normal" text-anchor="middle" textLength="16" x="220.0" y="146">TC</text>
  <rect fill="rgb(255,255,255)" height="40" stroke="rgb(255,255,255)" width="24" x="232" y="120" />
  <path d="M 232 120 L 256 120" fill="none" stroke="rgb(0,0,0)" />
  <path d="M 256 120 L 256 160" fill="none" stroke="rgb(0,0,0)" />
  <path d="M 256 160 L 232 160" fill="none" stroke="rgb(0,0,0)" />
  <path d="M 232 160 L 232 120" fill="none" stroke="rgb(0,0,0)" />
  <text fill="rgb(0,0,0)" font-family="sans-serif" font-size="11" font-style="normal" font-weight="normal" text-anchor="middle" textLength="17" x="244.5" y="146">RD</text>
  <rect fill="rgb(255,255,255)" height="40" stroke="rgb(255,255,255)" width="24" x="256" y="120" />
  <path d="M 256 120 L 280 120" fill="none" stroke="rgb(0,0,0)" />
  <path d="M 280 120 L 280 160" fill="none" stroke="rgb(0,0,0)" />
  <path d="M 280 160 L 256 160" fill="none" stroke="rgb(0,0,0)" />
  <path d="M 256 160 L 256 120" fill="none" stroke="rgb(0,0,0)" />
  <text fill="rgb(0,0,0)" font-family="sans-serif" font-size="11" font-style="normal" font-weight="normal" text-anchor="middle" textLength="17" x="268.5" y="146">RA</text>
  <rect fill="rgb(255,255,255)" height="40" stroke="rgb(255,255,255)" width="72" x="280" y="120" />
  <path d="M 280 120 L 352 120" fill="none" stroke="rgb(0,0,0)" />
  <path d="M 352 120 L 352 160" fill="none" stroke="rgb(0,0,0)" />
  <path d="M 352 160 L 280 160" fill="none" stroke="rgb(0,0,0)" />
  <path d="M 280 160 L 280 120" fill="none" stroke="rgb(0,0,0)" />
  <text fill="rgb(0,0,0)" font-family="sans-serif" font-size="11" font-style="normal" font-weight="normal" text-anchor="middle" textLength="8" x="316.0" y="146">Z</text>
  <rect fill="rgb(255,255,255)" height="40" stroke="rgb(255,255,255)" width="96" x="352" y="120" />
  <path d="M 352 120 L 448 120" fill="none" stroke="rgb(0,0,0)" />
  <path d="M 448 120 L 448 160" fill="none" stroke="rgb(0,0,0)" />
  <path d="M 448 160 L 352 160" fill="none" stroke="rgb(0,0,0)" />
  <path d="M 352 160 L 352 120" fill="none" stroke="rgb(0,0,0)" />
  <text fill="rgb(0,0,0)" font-family="sans-serif" font-size="11" font-style="normal" font-weight="normal" text-anchor="middle" textLength="43" x="400.5" y="146">RCODE</text>
  <rect fill="rgb(255,255,255)" height="40" stroke="rgb(255,255,255)" width="384" x="64" y="160" />
  <path d="M 64 160 L 448 160" fill="none" stroke="rgb(0,0,0)" />
  <path d="M 448 160 L 448 200" fill="none" stroke="rgb(0,0,0)" />
  <path d="M 448 200 L 64 200" fill="none" stroke="rgb(0,0,0)" />
  <path d="M 64 200 L 64 160" fill="none" stroke="rgb(0,0,0)" />
  <text fill="rgb(0,0,0)" font-family="sans-serif" font-size="11" font-style="normal" font-weight="normal" text-anchor="middle" textLength="62" x="256.0" y="187">QDCOUNT</text>
  <rect fill="rgb(255,255,255)" height="40" stroke="rgb(255,255,255)" width="384" x="64" y="200" />
  <path d="M 64 200 L 448 200" fill="none" stroke="rgb(0,0,0)" />
  <path d="M 448 200 L 448 240" fill="none" stroke="rgb(0,0,0)" />
  <path d="M 448 240 L 64 240" fill="none" stroke="rgb(0,0,0)" />
  <path d="M 64 240 L 64 200" fill="none" stroke="rgb(0,0,0)" />
  <text fill="rgb(0,0,0)" font-family="sans-serif" font-size="11" font-style="normal" font-weight="normal" text-anchor="middle" textLength="63" x="256.5" y="226">ANCOUNT</text>
  <rect fill="rgb(255,255,255)" height="40" stroke="rgb(255,255,255)" width="384" x="64" y="240" />
  <path d="M 64 240 L 448 240" fill="none" stroke="rgb(0,0,0)" />
  <path d="M 448 240 L 448 280" fill="none" stroke="rgb(0,0,0)" />
  <path d="M 448 280 L 64 280" fill="none" stroke="rgb(0,0,0)" />
  <path d="M 64 280 L 64 240" fill="none" stroke="rgb(0,0,0)" />
  <text fill="rgb(0,0,0)" font-family="sans-serif" font-size="11" font-style="normal" font-weight="normal" text-anchor="middle" textLength="61" x="256.5" y="266">NSCOUNT</text>
  <rect fill="rgb(255,255,255)" height="40" stroke="rgb(255,255,255)" width="384" x="64" y="280" />
  <path d="M 64 280 L 448 280" fill="none" stroke="rgb(0,0,0)" />
  <path d="M 448 280 L 448 320" fill="none" stroke="rgb(0,0,0)" />
  <path d="M 448 320 L 64 320" fill="none" stroke="rgb(0,0,0)" />
  <path d="M 64 320 L 64 280" fill="none" stroke="rgb(0,0,0)" />
  <text fill="rgb(0,0,0)" font-family="sans-serif" font-size="11" font-style="normal" font-weight="normal" text-anchor="middle" textLength="62" x="256.0" y="306">ARCOUNT</text>
</svg>
